PathFileType	4	(X/Y/Z)	 s03c0303.trc
DataRate	CameraRate	NumFrames	NumMarkers	Units	OrigDataRate	OrigDataStartFrame	OrigNumFrames
200	200	4	50	mm	200	1	2000
Frame#	Time	racr			lacr			c7			jug			rlel			rdr			llel			ldr			s2			lic			ric			lasi			rasi			rpsi			lpsi			rgt			lgt			rth1			rth2			rth3			rth4			rlfc			rmfc			rsh1			rsh2			rsh3			rsh4			rlmal			rcal			rtoe			rmt5			rmt1			lth1			lth2			lth4			lth3			llfc			lmfc			lsh1			lsh2			lsh3			lsh4			llmal			lcal			ltoe			lmt1			lmt5			SBIKE			LBIKE			RBIKE			
		X1	Y1	Z1	X2	Y2	Z2	X3	Y3	Z3	X4	Y4	Z4	X5	Y5	Z5	X6	Y6	Z6	X7	Y7	Z7	X8	Y8	Z8	X9	Y9	Z9	X10	Y10	Z10	X11	Y11	Z11	X12	Y12	Z12	X13	Y13	Z13	X14	Y14	Z14	X15	Y15	Z15	X16	Y16	Z16	X17	Y17	Z17	X18	Y18	Z18	X19	Y19	Z19	X20	Y20	Z20	X21	Y21	Z21	X22	Y22	Z22	X23	Y23	Z23	X24	Y24	Z24	X25	Y25	Z25	X26	Y26	Z26	X27	Y27	Z27	X28	Y28	Z28	X29	Y29	Z29	X30	Y30	Z30	X31	Y31	Z31	X32	Y32	Z32	X33	Y33	Z33	X34	Y34	Z34	X35	Y35	Z35	X36	Y36	Z36	X37	Y37	Z37	X38	Y38	Z38	X39	Y39	Z39	X40	Y40	Z40	X41	Y41	Z41	X42	Y42	Z42	X43	Y43	Z43	X44	Y44	Z44	X45	Y45	Z45	X46	Y46	Z46	X47	Y47	Z47	X48	Y48	Z48	X49	Y49	Z49	X50	Y50	Z50	
1	0.0050	494.272565	1416.136330	-76.588840	490.197985	1427.948609	-389.203450	417.875625	1491.782173	-231.359685	453.377346	1322.576127	-229.569284	540.112667	1147.445304	4.119790	752.074371	948.026034	-30.192502	559.847071	1164.391097	-452.628378	757.715398	935.023826	-415.407320	-102.832844	1208.881287	-239.708318	84.539720	1208.162285	-415.848287	70.832034	1224.785102	-49.475012	97.077156	1132.328669	-385.596921	NaN	NaN	NaN	-71.029797	1257.001164	-194.756345	-62.966918	1253.103457	-277.560260	1.930142	1148.992073	-32.068746	11.384144	1104.216174	-437.496239	125.812612	1058.622384	-12.557379	214.705245	1056.621644	-8.810999	289.759420	1013.542841	-10.073739	225.919771	1089.497541	-21.673982	408.701351	948.142354	-28.785796	419.270949	937.530263	-155.821914	353.363611	791.186388	-15.637447	344.212107	704.293988	-33.398663	289.536959	634.383082	-41.040087	370.597518	696.250733	-59.429140	234.532718	514.959478	-67.652410	170.183893	465.261048	-111.155998	478.908937	475.746575	-109.967705	360.937428	451.630556	-40.530154	385.765531	470.905313	-154.663180	80.246410	962.397946	-463.618309	142.952140	902.313142	-471.566863	174.144353	922.165601	-469.914966	169.677975	817.859220	-465.410160	252.066058	714.100706	-456.509822	263.048876	704.182895	-330.685225	154.317300	570.620251	-468.922734	133.841020	490.938604	-446.140193	71.036628	425.835599	-433.349724	161.814405	479.375354	-420.810237	2.153857	319.375003	-404.095831	-71.221032	285.431875	-354.602126	232.153668	225.734227	-355.292938	138.493933	236.072989	-310.862592	110.008885	222.926797	-427.156866	-218.047329	944.601729	-233.015452	-7.756306	83.188817	-436.305674	-14.030943	80.727810	-36.469753	
2	0.0100	494.307398	1416.103875	-76.610370	490.205344	1427.928925	-389.236985	417.857810	1491.782562	-231.331458	453.358908	1322.584175	-229.536995	540.100940	1147.446098	4.099705	752.058521	948.024148	-30.192505	559.850455	1164.402612	-452.629027	757.960485	935.157674	-415.289572	-102.832828	1208.867760	-239.694452	84.497878	1208.129067	-415.868450	70.828504	1224.741553	-49.486406	97.076983	1132.317491	-385.562533	NaN	NaN	NaN	-71.032578	1257.006574	-194.769329	-62.954471	1253.097767	-277.583299	1.947519	1148.979018	-32.086220	11.360334	1104.220791	-437.513814	125.817973	1058.615230	-12.563341	214.710734	1056.590785	-8.829692	289.768797	1013.521473	-10.097599	225.936888	1089.488858	-21.682465	408.719278	948.102505	-28.788012	419.259800	937.504618	-155.830722	353.370493	791.174024	-15.650991	344.231873	704.275111	-33.404374	289.531189	634.382946	-41.044525	370.606937	696.248220	-59.430065	234.507861	514.968910	-67.669339	170.174096	465.255567	-111.162062	478.900502	475.769497	-109.940168	360.933005	451.622410	-40.538012	385.775661	470.909422	-154.673232	80.241983	962.397545	-463.635419	142.955731	902.319685	-471.603818	174.153672	922.173122	-469.929237	169.687539	817.882543	-465.437461	252.070224	714.105898	-456.541352	263.097848	704.193648	-330.707090	154.318354	570.645954	-468.963221	133.858241	490.938912	-446.185984	71.066506	425.849913	-433.350665	161.835582	479.386619	-420.825272	2.164889	319.385423	-404.095121	-71.206010	285.456880	-354.613803	232.138596	225.749577	-355.300171	138.519284	236.069136	-310.844792	110.021435	222.939355	-427.155896	-218.044368	944.617206	-233.043438	-7.761655	83.218775	-436.302397	-14.014373	80.723690	-36.479639	
3	0.0150	494.285042	1416.123078	-76.622455	490.213849	1427.924098	-389.241956	417.855320	1491.777035	-231.341116	453.342089	1322.587731	-229.555714	540.097188	1147.440268	4.086046	752.058552	948.024256	-30.192735	559.851520	1164.403062	-452.638991	757.946990	935.155417	-415.285708	-102.832828	1208.867760	-239.694452	84.482776	1208.146621	-415.893008	70.825414	1224.746330	-49.491340	97.069259	1132.324135	-385.576610	NaN	NaN	NaN	-71.040996	1257.011374	-194.765314	-62.960707	1253.096759	-277.565599	1.939636	1148.972050	-32.076660	11.357987	1104.225865	-437.519054	125.821988	1058.603004	-12.583520	214.718402	1056.582172	-8.830872	289.762450	1013.510997	-10.109509	225.942369	1089.472861	-21.694428	408.708489	948.092813	-28.788033	419.261227	937.483451	-155.855841	353.360345	791.168389	-15.656961	344.198950	704.269142	-33.425031	289.523724	634.365615	-41.052906	370.588103	696.234724	-59.434762	234.496483	514.948551	-67.671174	170.169302	465.237190	-111.138431	478.883982	475.772424	-109.940610	360.939102	451.622094	-40.536935	385.752232	470.905436	-154.661264	80.226369	962.400166	-463.644827	142.954848	902.315395	-471.611977	174.145185	922.179837	-469.949999	169.696430	817.887006	-465.441662	252.080857	714.132327	-456.549226	263.121449	704.192143	-330.723616	154.329154	570.659621	-468.975331	133.869691	490.953784	-446.189575	71.077068	425.866764	-433.352457	161.831191	479.399398	-420.836010	2.173915	319.397439	-404.101578	-71.195632	285.467999	-354.618743	232.165581	225.730592	-355.280583	138.505059	236.075550	-310.859813	110.033452	222.925535	-427.156544	-218.042324	944.619058	-233.042522	-7.753361	83.237208	-436.297613	-14.018136	80.733637	-36.482724	
4	0.0200	494.298804	1416.115110	-76.614946	490.558039	1427.376623	-387.326088	417.840506	1491.795186	-231.359999	453.344388	1322.576408	-229.556828	539.989054	1147.326701	4.188823	752.059042	948.020232	-30.189853	559.847875	1164.384875	-452.644640	757.712258	934.996865	-415.399474	-102.843857	1208.869028	-239.691079	83.822709	1208.574937	-416.839696	70.834876	1224.742442	-49.494549	96.958079	1131.202980	-384.974206	NaN	NaN	NaN	-71.033137	1257.010919	-194.763362	-62.515676	1252.974901	-277.012982	1.955015	1148.969979	-32.089688	11.205406	1104.119114	-437.755634	125.739912	1058.600668	-12.596961	214.732146	1056.575399	-8.832597	289.883593	1013.453555	-9.982967	225.146495	1089.867318	-22.438162	408.724538	948.088515	-28.808199	420.055444	936.436414	-153.642910	353.343701	791.134321	-15.625537	344.213551	704.264387	-33.427449	289.522999	634.345443	-41.053246	372.138491	697.289313	-59.029224	234.224791	515.035125	-67.521355	170.175857	465.219742	-111.150415	478.865106	475.723361	-109.835329	360.643927	451.715201	-40.403433	385.739989	470.902232	-154.665214	80.204354	962.365738	-463.718993	142.962527	902.328260	-471.613480	174.655768	921.319725	-468.428277	170.162012	817.282155	-464.319183	252.738368	713.174415	-454.749957	263.132007	704.210382	-330.717440	154.953088	569.742217	-467.403455	134.189265	489.818228	-444.134813	71.089227	425.866581	-433.352361	162.260696	478.750148	-419.610525	1.651446	320.496416	-405.359735	-71.187537	285.481987	-354.615103	232.107803	225.748772	-355.292279	138.504004	236.073405	-310.848821	110.632432	221.371950	-425.022797	-218.112487	944.630567	-233.530724	-7.743466	83.214465	-436.311738	-14.038576	80.733620	-36.493568	
